<svg width="698" height="645" viewBox="0 0 698 645" fill="none" xmlns="http://www.w3.org/2000/svg">
<g clip-path="url(#clip0_76_70)">
<path d="M251.28 161.249C278.265 161.249 300.14 141.035 300.14 116.099C300.14 91.1636 278.265 70.9492 251.28 70.9492C224.295 70.9492 202.42 91.1636 202.42 116.099C202.42 141.035 224.295 161.249 251.28 161.249Z" fill="white" stroke="white" stroke-width="30"/>
<path d="M251.28 161.25V322.5" stroke="white" stroke-width="29" stroke-linecap="round"/>
<path d="M251.28 322.5L181.48 464.4" stroke="white" stroke-width="29" stroke-linecap="round"/>
<path d="M251.28 322.5L321.08 464.4" stroke="white" stroke-width="29" stroke-linecap="round"/>
<path d="M251.28 219.302L167.52 180.602" stroke="white" stroke-width="29" stroke-linecap="round"/>
<path d="M251.28 219.302L349 180.602" stroke="white" stroke-width="29" stroke-linecap="round"/>
<path d="M279.2 325.465L279.2 36.5315" stroke="#DB540C" stroke-width="3" stroke-linecap="round"/>
<path d="M279.2 325.465C373 259.798 373 102.198 279.2 36.5315" stroke="white" stroke-width="16" stroke-linecap="round"/>
<path d="M325.302 207.258H350.762C356.682 207.258 361.482 202.554 361.482 196.751L360.27 180.991L361.482 165.231C361.482 159.428 356.682 154.724 350.762 154.724H325.302C319.381 154.724 329.322 171.248 329.322 177.051V185.588C329.322 191.39 319.381 207.258 325.302 207.258Z" fill="#FF6011"/>
<path d="M165.8 181H367.35" stroke="#FFF2E6" stroke-width="8" stroke-linecap="round"/>
<path d="M383.8 181L356 171L363.5 181L356 191L383.8 181Z" fill="#E62D08"/>
<path d="M172 181L151 169L159.4 181L151 193L172 181Z" fill="#FF2C2C"/>
<path d="M162 181L144 173L151.2 181L144 189L162 181Z" fill="#FF3D00"/>
</g>
<defs>
<clipPath id="clip0_76_70">
<rect width="698" height="645" fill="white"/>
</clipPath>
</defs>
</svg>
